# Blender 3.4.1
# www.blender.org
mtllib Road.mtl
o Cube
v -0.500000 0.063027 0.500000
v -0.500000 0.000037 0.500000
v -0.500000 0.063027 -0.500000
v -0.500000 0.000037 -0.500000
v 0.500000 0.063027 0.500000
v 0.500000 0.000037 0.500000
v 0.500000 0.063027 -0.500000
v 0.500000 0.000037 -0.500000
v -0.500000 0.063027 0.000000
v -0.500000 0.000037 0.000000
v 0.500000 0.063027 0.000000
v 0.500000 0.000037 0.000000
v -0.500000 0.063027 0.250000
v 0.500000 0.000037 0.250000
v -0.500000 0.000037 0.250000
v 0.500000 0.063027 0.250000
v -0.500000 0.000037 -0.250000
v 0.500000 0.063027 -0.250000
v -0.500000 0.063027 -0.250000
v 0.500000 0.000037 -0.250000
v -0.500000 0.000037 -0.375000
v 0.500000 0.063027 -0.375000
v -0.500000 0.063027 -0.375000
v 0.500000 0.000037 -0.375000
v -0.500000 0.063027 -0.125000
v 0.500000 0.000037 -0.125000
v -0.500000 0.000037 -0.125000
v 0.500000 0.063027 -0.125000
v -0.500000 0.000037 0.125000
v 0.500000 0.063027 0.125000
v -0.500000 0.063027 0.125000
v 0.500000 0.000037 0.125000
v -0.500000 0.063027 0.375000
v 0.500000 0.000037 0.375000
v -0.500000 0.000037 0.375000
v 0.500000 0.063027 0.375000
v 0.000000 0.063027 -0.500000
v 0.000000 0.000037 -0.500000
v 0.000000 0.063027 0.500000
v 0.000000 0.000037 0.500000
v 0.000000 0.000037 0.000000
v 0.000000 0.063027 0.000000
v 0.000000 0.000037 0.250000
v 0.000000 0.063027 0.250000
v 0.000000 0.063027 -0.250000
v 0.000000 0.000037 -0.250000
v 0.000000 0.000037 -0.375000
v 0.000000 0.063027 -0.375000
v 0.000000 0.063027 -0.125000
v 0.000000 0.000037 -0.125000
v 0.000000 0.063027 0.125000
v 0.000000 0.000037 0.125000
v 0.000000 0.000037 0.375000
v 0.000000 0.063027 0.375000
v -0.250000 0.063027 -0.500000
v -0.250000 0.000037 0.500000
v -0.250000 0.063027 0.000000
v -0.250000 0.063027 0.250000
v -0.250000 0.063027 -0.250000
v -0.250000 0.063027 -0.375000
v -0.250000 0.063027 -0.125000
v -0.250000 0.063027 0.125000
v -0.250000 0.063027 0.375000
v -0.250000 0.000037 -0.500000
v -0.250000 0.063027 0.500000
v -0.250000 0.000037 0.000000
v -0.250000 0.000037 0.250000
v -0.250000 0.000037 -0.250000
v -0.250000 0.000037 -0.375000
v -0.250000 0.000037 -0.125000
v -0.250000 0.000037 0.125000
v -0.250000 0.000037 0.375000
v 0.250000 0.000037 -0.500000
v 0.250000 0.063027 0.500000
v 0.250000 0.000037 0.000000
v 0.250000 0.000037 0.250000
v 0.250000 0.000037 -0.250000
v 0.250000 0.000037 -0.375000
v 0.250000 0.000037 -0.125000
v 0.250000 0.000037 0.125000
v 0.250000 0.000037 0.375000
v 0.250000 0.063027 -0.500000
v 0.250000 0.000037 0.500000
v 0.250000 0.063027 0.000000
v 0.250000 0.063027 0.250000
v 0.250000 0.063027 -0.250000
v 0.250000 0.063027 -0.375000
v 0.250000 0.063027 -0.125000
v 0.250000 0.063027 0.125000
v 0.250000 0.063027 0.375000
v -0.375000 0.063027 -0.500000
v -0.375000 0.000037 0.500000
v -0.375000 0.063027 0.000000
v -0.375000 0.063027 0.250000
v -0.375000 0.063027 -0.250000
v -0.375000 0.063027 -0.375000
v -0.375000 0.063027 -0.125000
v -0.375000 0.063027 0.125000
v -0.375000 0.063027 0.375000
v -0.375000 0.000037 -0.500000
v -0.375000 0.063027 0.500000
v -0.375000 0.000037 0.000000
v -0.375000 0.000037 0.250000
v -0.375000 0.000037 -0.250000
v -0.375000 0.000037 -0.375000
v -0.375000 0.000037 -0.125000
v -0.375000 0.000037 0.125000
v -0.375000 0.000037 0.375000
v -0.125000 0.000037 -0.500000
v -0.125000 0.063027 0.500000
v -0.125000 0.000037 0.000000
v -0.125000 0.000037 0.250000
v -0.125000 0.000037 -0.250000
v -0.125000 0.000037 -0.375000
v -0.125000 0.000037 -0.125000
v -0.125000 0.000037 0.125000
v -0.125000 0.000037 0.375000
v -0.125000 0.063027 -0.500000
v -0.125000 0.000037 0.500000
v -0.125000 0.063027 0.000000
v -0.125000 0.063027 0.250000
v -0.125000 0.063027 -0.250000
v -0.125000 0.063027 -0.375000
v -0.125000 0.063027 -0.125000
v -0.125000 0.063027 0.125000
v -0.125000 0.063027 0.375000
v 0.125000 0.063027 -0.500000
v 0.125000 0.000037 0.500000
v 0.125000 0.063027 0.000000
v 0.125000 0.063027 0.250000
v 0.125000 0.063027 -0.250000
v 0.125000 0.063027 -0.375000
v 0.125000 0.063027 -0.125000
v 0.125000 0.063027 0.125000
v 0.125000 0.063027 0.375000
v 0.125000 0.000037 -0.500000
v 0.125000 0.063027 0.500000
v 0.125000 0.000037 0.000000
v 0.125000 0.000037 0.250000
v 0.125000 0.000037 -0.250000
v 0.125000 0.000037 -0.375000
v 0.125000 0.000037 -0.125000
v 0.125000 0.000037 0.125000
v 0.125000 0.000037 0.375000
v 0.375000 0.000037 -0.500000
v 0.375000 0.063027 0.500000
v 0.375000 0.000037 0.000000
v 0.375000 0.000037 0.250000
v 0.375000 0.000037 -0.250000
v 0.375000 0.000037 -0.375000
v 0.375000 0.000037 -0.125000
v 0.375000 0.000037 0.125000
v 0.375000 0.000037 0.375000
v 0.375000 0.063027 -0.500000
v 0.375000 0.000037 0.500000
v 0.375000 0.063027 0.000000
v 0.375000 0.063027 0.250000
v 0.375000 0.063027 -0.250000
v 0.375000 0.063027 -0.375000
v 0.375000 0.063027 -0.125000
v 0.375000 0.063027 0.125000
v 0.375000 0.063027 0.375000
vn -1.0000 -0.0000 -0.0000
vn -0.0000 -0.0000 -1.0000
vn 1.0000 -0.0000 -0.0000
vn -0.0000 -0.0000 1.0000
vn -0.0000 1.0000 -0.0000
vn -0.0000 -1.0000 -0.0000
vt 0.375000 1.000000
vt 0.375000 0.000000
vt 0.125000 0.750000
vt 0.625000 1.000000
vt 0.875000 0.750000
vt 0.625000 0.000000
vt 0.125000 0.500000
vt 0.375000 0.250000
vt 0.875000 0.500000
vt 0.625000 0.250000
vt 0.375000 0.750000
vt 0.625000 0.750000
vt 0.375000 0.500000
vt 0.625000 0.500000
vt 0.375000 0.125000
vt 0.125000 0.625000
vt 0.625000 0.125000
vt 0.875000 0.625000
vt 0.375000 0.625000
vt 0.625000 0.625000
vt 0.375000 0.062500
vt 0.125000 0.687500
vt 0.625000 0.687500
vt 0.625000 0.062500
vt 0.875000 0.687500
vt 0.375000 0.687500
vt 0.625000 0.187500
vt 0.875000 0.562500
vt 0.375000 0.562500
vt 0.375000 0.187500
vt 0.125000 0.562500
vt 0.625000 0.562500
vt 0.875000 0.531250
vt 0.625000 0.218750
vt 0.375000 0.531250
vt 0.375000 0.218750
vt 0.125000 0.531250
vt 0.625000 0.531250
vt 0.375000 0.156250
vt 0.125000 0.593750
vt 0.625000 0.593750
vt 0.625000 0.156250
vt 0.875000 0.593750
vt 0.375000 0.593750
vt 0.875000 0.656250
vt 0.625000 0.093750
vt 0.375000 0.656250
vt 0.375000 0.093750
vt 0.125000 0.656250
vt 0.625000 0.656250
vt 0.375000 0.031250
vt 0.125000 0.718750
vt 0.625000 0.718750
vt 0.625000 0.031250
vt 0.875000 0.718750
vt 0.375000 0.718750
vt 0.375000 0.375000
vt 0.250000 0.500000
vt 0.750000 0.500000
vt 0.625000 0.375000
vt 0.375000 0.875000
vt 0.250000 0.750000
vt 0.625000 0.875000
vt 0.750000 0.750000
vt 0.750000 0.625000
vt 0.250000 0.625000
vt 0.750000 0.687500
vt 0.250000 0.687500
vt 0.250000 0.562500
vt 0.750000 0.562500
vt 0.750000 0.531250
vt 0.250000 0.531250
vt 0.250000 0.593750
vt 0.750000 0.593750
vt 0.250000 0.656250
vt 0.750000 0.656250
vt 0.750000 0.718750
vt 0.250000 0.718750
vt 0.375000 0.312500
vt 0.187500 0.500000
vt 0.812500 0.750000
vt 0.625000 0.937500
vt 0.187500 0.625000
vt 0.187500 0.687500
vt 0.187500 0.562500
vt 0.187500 0.531250
vt 0.187500 0.593750
vt 0.187500 0.656250
vt 0.187500 0.718750
vt 0.812500 0.500000
vt 0.625000 0.312500
vt 0.375000 0.937500
vt 0.187500 0.750000
vt 0.812500 0.625000
vt 0.812500 0.687500
vt 0.812500 0.562500
vt 0.812500 0.531250
vt 0.812500 0.593750
vt 0.812500 0.656250
vt 0.812500 0.718750
vt 0.687500 0.500000
vt 0.625000 0.437500
vt 0.375000 0.812500
vt 0.312500 0.750000
vt 0.687500 0.625000
vt 0.687500 0.687500
vt 0.687500 0.562500
vt 0.687500 0.531250
vt 0.687500 0.593750
vt 0.687500 0.656250
vt 0.687500 0.718750
vt 0.312500 0.500000
vt 0.375000 0.437500
vt 0.625000 0.812500
vt 0.687500 0.750000
vt 0.312500 0.625000
vt 0.312500 0.687500
vt 0.312500 0.562500
vt 0.312500 0.531250
vt 0.312500 0.593750
vt 0.312500 0.656250
vt 0.312500 0.718750
vt 0.156250 0.500000
vt 0.375000 0.281250
vt 0.843750 0.750000
vt 0.625000 0.968750
vt 0.156250 0.625000
vt 0.156250 0.687500
vt 0.156250 0.562500
vt 0.156250 0.531250
vt 0.156250 0.593750
vt 0.156250 0.656250
vt 0.156250 0.718750
vt 0.625000 0.281250
vt 0.843750 0.500000
vt 0.156250 0.750000
vt 0.375000 0.968750
vt 0.843750 0.625000
vt 0.843750 0.687500
vt 0.843750 0.562500
vt 0.843750 0.531250
vt 0.843750 0.593750
vt 0.843750 0.656250
vt 0.843750 0.718750
vt 0.781250 0.500000
vt 0.625000 0.343750
vt 0.375000 0.906250
vt 0.218750 0.750000
vt 0.781250 0.625000
vt 0.781250 0.687500
vt 0.781250 0.562500
vt 0.781250 0.531250
vt 0.781250 0.593750
vt 0.781250 0.656250
vt 0.781250 0.718750
vt 0.375000 0.343750
vt 0.218750 0.500000
vt 0.625000 0.906250
vt 0.781250 0.750000
vt 0.218750 0.625000
vt 0.218750 0.687500
vt 0.218750 0.562500
vt 0.218750 0.531250
vt 0.218750 0.593750
vt 0.218750 0.656250
vt 0.218750 0.718750
vt 0.375000 0.406250
vt 0.281250 0.500000
vt 0.625000 0.843750
vt 0.718750 0.750000
vt 0.281250 0.625000
vt 0.281250 0.687500
vt 0.281250 0.562500
vt 0.281250 0.531250
vt 0.281250 0.593750
vt 0.281250 0.656250
vt 0.281250 0.718750
vt 0.625000 0.406250
vt 0.718750 0.500000
vt 0.281250 0.750000
vt 0.375000 0.843750
vt 0.718750 0.625000
vt 0.718750 0.687500
vt 0.718750 0.562500
vt 0.718750 0.531250
vt 0.718750 0.593750
vt 0.718750 0.656250
vt 0.718750 0.718750
vt 0.656250 0.500000
vt 0.625000 0.468750
vt 0.375000 0.781250
vt 0.343750 0.750000
vt 0.656250 0.625000
vt 0.656250 0.687500
vt 0.656250 0.562500
vt 0.656250 0.531250
vt 0.656250 0.593750
vt 0.656250 0.656250
vt 0.656250 0.718750
vt 0.343750 0.500000
vt 0.375000 0.468750
vt 0.656250 0.750000
vt 0.625000 0.781250
vt 0.343750 0.625000
vt 0.343750 0.687500
vt 0.343750 0.562500
vt 0.343750 0.531250
vt 0.343750 0.593750
vt 0.343750 0.656250
vt 0.343750 0.718750
s 0
usemtl Material.001
f 23/36/1 3/8/1 4/10/1 21/34/1
f 154/201/2 7/13/2 8/14/2 145/190/2
f 36/56/3 5/11/3 6/12/3 34/53/3
f 101/137/4 1/1/4 2/4/4 92/126/4
f 162/210/5 146/192/5 5/11/5 36/56/5
f 108/144/6 92/125/6 2/5/6 35/55/6
f 106/142/6 102/138/6 10/18/6 27/43/6
f 160/208/5 156/204/5 11/19/5 28/44/5
f 28/44/3 11/19/3 12/20/3 26/41/3
f 31/48/1 9/15/1 10/17/1 29/46/1
f 33/51/1 13/21/1 15/24/1 35/54/1
f 107/143/6 103/139/6 15/25/6 29/45/6
f 161/209/5 157/205/5 16/26/5 30/47/5
f 30/47/3 16/26/3 14/23/3 32/50/3
f 22/35/3 18/29/3 20/32/3 24/38/3
f 159/207/5 158/206/5 18/29/5 22/35/5
f 105/141/6 104/140/6 17/28/6 21/33/6
f 25/39/1 19/30/1 17/27/1 27/42/1
f 100/135/6 105/141/6 21/33/6 4/9/6
f 154/200/5 159/207/5 22/35/5 7/13/5
f 7/13/3 22/35/3 24/38/3 8/14/3
f 19/30/1 23/36/1 21/34/1 17/27/1
f 9/15/1 25/39/1 27/42/1 10/17/1
f 18/29/3 28/44/3 26/41/3 20/32/3
f 158/206/5 160/208/5 28/44/5 18/29/5
f 104/140/6 106/142/6 27/43/6 17/28/6
f 11/19/3 30/47/3 32/50/3 12/20/3
f 156/204/5 161/209/5 30/47/5 11/19/5
f 102/138/6 107/143/6 29/45/6 10/18/6
f 13/21/1 31/48/1 29/46/1 15/24/1
f 1/2/1 33/51/1 35/54/1 2/6/1
f 103/139/6 108/144/6 35/55/6 15/25/6
f 157/205/5 162/210/5 36/56/5 16/26/5
f 16/26/3 36/56/3 34/53/3 14/23/3
f 121/161/5 126/166/5 54/78/5 44/68/5
f 139/183/6 144/188/6 53/77/6 43/67/6
f 138/182/6 143/187/6 52/76/6 41/65/6
f 120/160/5 125/165/5 51/75/5 42/66/5
f 140/184/6 142/186/6 50/74/6 46/70/6
f 122/162/5 124/164/5 49/73/5 45/69/5
f 118/157/5 123/163/5 48/72/5 37/58/5
f 136/179/6 141/185/6 47/71/6 38/59/6
f 141/185/6 140/184/6 46/70/6 47/71/6
f 123/163/5 122/162/5 45/69/5 48/72/5
f 125/165/5 121/161/5 44/68/5 51/75/5
f 143/187/6 139/183/6 43/67/6 52/76/6
f 124/164/5 120/160/5 42/66/5 49/73/5
f 142/186/6 138/182/6 41/65/6 50/74/6
f 144/188/6 128/170/6 40/64/6 53/77/6
f 126/166/5 110/148/5 39/62/5 54/78/5
f 137/181/4 39/61/4 40/63/4 128/169/4
f 118/156/2 37/57/2 38/60/2 109/146/2
f 91/124/2 55/79/2 64/91/2 100/134/2
f 99/133/5 101/136/5 65/93/5 63/89/5
f 97/131/5 93/127/5 57/83/5 61/87/5
f 98/132/5 94/128/5 58/84/5 62/88/5
f 96/130/5 95/129/5 59/85/5 60/86/5
f 91/123/5 96/130/5 60/86/5 55/80/5
f 95/129/5 97/131/5 61/87/5 59/85/5
f 93/127/5 98/132/5 62/88/5 57/83/5
f 94/128/5 99/133/5 63/89/5 58/84/5
f 112/150/6 117/155/6 72/100/6 67/95/6
f 111/149/6 116/154/6 71/99/6 66/94/6
f 113/151/6 115/153/6 70/98/6 68/96/6
f 109/145/6 114/152/6 69/97/6 64/90/6
f 114/152/6 113/151/6 68/96/6 69/97/6
f 116/154/6 112/150/6 67/95/6 71/99/6
f 115/153/6 111/149/6 66/94/6 70/98/6
f 117/155/6 119/159/6 56/81/6 72/100/6
f 110/147/4 65/92/4 56/82/4 119/158/4
f 146/191/4 74/103/4 83/114/4 155/203/4
f 153/199/6 155/202/6 83/115/6 81/111/6
f 151/197/6 147/193/6 75/105/6 79/109/6
f 152/198/6 148/194/6 76/106/6 80/110/6
f 150/196/6 149/195/6 77/107/6 78/108/6
f 145/189/6 150/196/6 78/108/6 73/101/6
f 149/195/6 151/197/6 79/109/6 77/107/6
f 147/193/6 152/198/6 80/110/6 75/105/6
f 148/194/6 153/199/6 81/111/6 76/106/6
f 130/172/5 135/177/5 90/122/5 85/117/5
f 129/171/5 134/176/5 89/121/5 84/116/5
f 131/173/5 133/175/5 88/120/5 86/118/5
f 127/168/5 132/174/5 87/119/5 82/112/5
f 132/174/5 131/173/5 86/118/5 87/119/5
f 134/176/5 130/172/5 85/117/5 89/121/5
f 133/175/5 129/171/5 84/116/5 88/120/5
f 135/177/5 137/180/5 74/104/5 90/122/5
f 127/167/2 82/113/2 73/102/2 136/178/2
f 13/22/5 33/52/5 99/133/5 94/128/5
f 9/16/5 31/49/5 98/132/5 93/127/5
f 19/31/5 25/40/5 97/131/5 95/129/5
f 3/7/5 23/37/5 96/130/5 91/123/5
f 23/37/5 19/31/5 95/129/5 96/130/5
f 31/49/5 13/22/5 94/128/5 98/132/5
f 25/40/5 9/16/5 93/127/5 97/131/5
f 33/52/5 1/3/5 101/136/5 99/133/5
f 3/8/2 91/124/2 100/134/2 4/10/2
f 67/95/6 72/100/6 108/144/6 103/139/6
f 66/94/6 71/99/6 107/143/6 102/138/6
f 68/96/6 70/98/6 106/142/6 104/140/6
f 64/90/6 69/97/6 105/141/6 100/135/6
f 69/97/6 68/96/6 104/140/6 105/141/6
f 71/99/6 67/95/6 103/139/6 107/143/6
f 70/98/6 66/94/6 102/138/6 106/142/6
f 72/100/6 56/81/6 92/125/6 108/144/6
f 65/92/4 101/137/4 92/126/4 56/82/4
f 39/61/4 110/147/4 119/158/4 40/63/4
f 53/77/6 40/64/6 119/159/6 117/155/6
f 50/74/6 41/65/6 111/149/6 115/153/6
f 52/76/6 43/67/6 112/150/6 116/154/6
f 47/71/6 46/70/6 113/151/6 114/152/6
f 38/59/6 47/71/6 114/152/6 109/145/6
f 46/70/6 50/74/6 115/153/6 113/151/6
f 41/65/6 52/76/6 116/154/6 111/149/6
f 43/67/6 53/77/6 117/155/6 112/150/6
f 55/79/2 118/156/2 109/146/2 64/91/2
f 63/89/5 65/93/5 110/148/5 126/166/5
f 61/87/5 57/83/5 120/160/5 124/164/5
f 62/88/5 58/84/5 121/161/5 125/165/5
f 60/86/5 59/85/5 122/162/5 123/163/5
f 55/80/5 60/86/5 123/163/5 118/157/5
f 59/85/5 61/87/5 124/164/5 122/162/5
f 57/83/5 62/88/5 125/165/5 120/160/5
f 58/84/5 63/89/5 126/166/5 121/161/5
f 37/57/2 127/167/2 136/178/2 38/60/2
f 54/78/5 39/62/5 137/180/5 135/177/5
f 49/73/5 42/66/5 129/171/5 133/175/5
f 51/75/5 44/68/5 130/172/5 134/176/5
f 48/72/5 45/69/5 131/173/5 132/174/5
f 37/58/5 48/72/5 132/174/5 127/168/5
f 45/69/5 49/73/5 133/175/5 131/173/5
f 42/66/5 51/75/5 134/176/5 129/171/5
f 44/68/5 54/78/5 135/177/5 130/172/5
f 74/103/4 137/181/4 128/169/4 83/114/4
f 81/111/6 83/115/6 128/170/6 144/188/6
f 79/109/6 75/105/6 138/182/6 142/186/6
f 80/110/6 76/106/6 139/183/6 143/187/6
f 78/108/6 77/107/6 140/184/6 141/185/6
f 73/101/6 78/108/6 141/185/6 136/179/6
f 77/107/6 79/109/6 142/186/6 140/184/6
f 75/105/6 80/110/6 143/187/6 138/182/6
f 76/106/6 81/111/6 144/188/6 139/183/6
f 14/23/6 34/53/6 153/199/6 148/194/6
f 12/20/6 32/50/6 152/198/6 147/193/6
f 20/32/6 26/41/6 151/197/6 149/195/6
f 8/14/6 24/38/6 150/196/6 145/189/6
f 24/38/6 20/32/6 149/195/6 150/196/6
f 32/50/6 14/23/6 148/194/6 152/198/6
f 26/41/6 12/20/6 147/193/6 151/197/6
f 34/53/6 6/12/6 155/202/6 153/199/6
f 5/11/4 146/191/4 155/203/4 6/12/4
f 85/117/5 90/122/5 162/210/5 157/205/5
f 84/116/5 89/121/5 161/209/5 156/204/5
f 86/118/5 88/120/5 160/208/5 158/206/5
f 82/112/5 87/119/5 159/207/5 154/200/5
f 87/119/5 86/118/5 158/206/5 159/207/5
f 89/121/5 85/117/5 157/205/5 161/209/5
f 88/120/5 84/116/5 156/204/5 160/208/5
f 90/122/5 74/104/5 146/192/5 162/210/5
f 82/113/2 154/201/2 145/190/2 73/102/2
