# Blender 3.4.1
# www.blender.org
mtllib swiper_2.mtl
o Cube
v -7.035405 1.000000 1.000001
v -7.035405 -1.000000 1.000001
v -7.035405 1.000000 -0.999999
v -7.035405 -1.000000 -0.999999
v 6.952312 1.000000 0.999999
v 6.952312 -1.000000 0.999999
v 6.952312 1.000000 -1.000001
v 6.952312 -1.000000 -1.000001
v 1.371596 -1.000000 1.000000
v 1.371596 1.000000 -1.000000
v 1.371596 -1.000000 -1.000000
v 1.371596 1.000000 1.000000
v -0.473056 -1.000000 -1.000000
v -0.473056 1.000000 1.000000
v -0.473056 -1.000000 1.000000
v -0.473057 1.000000 -1.000000
v -0.473057 1.000000 -1.118209
v 1.371596 1.000000 -1.118209
v 1.371596 -1.000000 -4.351427
v -0.473057 -1.000000 -4.351427
vn -0.0000 1.0000 -0.0000
vn -0.0000 -0.0000 -1.0000
vn 1.0000 -0.0000 -0.0000
vn -0.0000 -1.0000 -0.0000
vn -1.0000 -0.0000 -0.0000
vn -0.0000 -0.0000 1.0000
vn -0.0000 0.8504 -0.5261
vt 0.625000 0.500000
vt 0.375000 0.500000
vt 0.625000 0.750000
vt 0.375000 0.750000
vt 0.875000 0.500000
vt 0.625000 0.250000
vt 0.375000 0.250000
vt 0.125000 0.500000
vt 0.875000 0.750000
vt 0.625000 1.000000
vt 0.625000 0.000000
vt 0.375000 1.000000
vt 0.375000 0.000000
vt 0.125000 0.750000
vt 0.375000 0.349743
vt 0.224743 0.500000
vt 0.775257 0.750000
vt 0.625000 0.900257
vt 0.224743 0.750000
vt 0.375000 0.900257
vt 0.775257 0.500000
vt 0.625000 0.349743
vt 0.257712 0.750000
vt 0.375000 0.867288
vt 0.742288 0.500000
vt 0.625000 0.382712
vt 0.375000 0.382712
vt 0.257712 0.500000
vt 0.742288 0.750000
vt 0.625000 0.867288
vt 0.742288 0.750000
vt 0.625000 0.867288
vt 0.775257 0.750000
vt 0.625000 0.900257
vt 0.224743 0.750000
vt 0.375000 0.900257
vt 0.257712 0.750000
vt 0.375000 0.867288
s 0
usemtl Material
f 12/21/1 5/5/1 7/9/1 10/17/1
f 11/20/2 10/18/2 7/10/2 8/12/2
f 8/13/3 7/11/3 5/6/3 6/7/3
f 15/28/4 2/2/4 4/4/4 13/23/4
f 2/2/5 1/1/5 3/3/5 4/4/5
f 15/27/6 14/26/6 1/1/6 2/2/6
f 6/7/6 5/6/6 12/22/6 9/15/6
f 6/8/4 9/16/4 11/19/4 8/14/4
f 16/29/1 10/17/1 18/33/1 17/31/1
f 14/25/1 12/21/1 10/17/1 16/29/1
f 1/1/1 14/25/1 16/29/1 3/3/1
f 4/4/2 3/3/2 16/30/2 13/24/2
f 9/15/6 12/22/6 14/26/6 15/27/6
f 9/16/4 15/28/4 13/23/4 11/19/4
f 20/38/7 17/32/7 18/34/7 19/36/7
f 11/19/4 13/23/4 20/37/4 19/35/4
f 10/18/3 11/20/3 19/36/3 18/34/3
f 13/24/5 16/30/5 17/32/5 20/38/5
